<svg id="Layer_1" data-name="Layer 1" xmlns="http://www.w3.org/2000/svg" viewBox="0 0 120 120">
  <title>_</title>
  <g>
    <path d="M34.19,120a8.39,8.39,0,1,1,8.39-8.39A8.39,8.39,0,0,1,34.19,120Zm0-12.9a4.52,4.52,0,1,0,4.52,4.51A4.52,4.52,0,0,0,34.19,107.1Z"/>
    <path d="M85.81,120a8.39,8.39,0,1,1,8.38-8.39A8.39,8.39,0,0,1,85.81,120Zm0-12.9a4.52,4.52,0,1,0,4.51,4.51A4.53,4.53,0,0,0,85.81,107.1Z"/>
    <path d="M27.74,113.55H18.06a11.62,11.62,0,0,1,0-23.23H96.94l6.29-69.21,3.86.36-6.61,72.72H18.06a7.75,7.75,0,0,0,0,15.49h9.68Z"/>
    <rect x="40.64" y="109.68" width="38.71" height="3.87"/>
    <polygon points="19.36 92.4 13.03 3.87 1.93 3.87 1.93 0 16.64 0 23.22 92.12 19.36 92.4"/>
    <rect x="92.26" y="109.68" width="12.9" height="3.87"/>
    <rect x="16.19" y="19.36" width="101.87" height="3.87"/>
    <rect x="38.71" y="34.19" width="3.87" height="38.71"/>
    <rect x="58.07" y="34.19" width="3.87" height="38.71"/>
    <rect x="77.42" y="34.19" width="3.87" height="38.71"/>
    <rect x="21.29" y="83.87" width="77.42" height="3.87"/>
  </g>
</svg>
